<?xml version="1.0" encoding="utf-8"?>
<!-- Generator: Adobe Illustrator 23.0.5, SVG Export Plug-In . SVG Version: 6.00 Build 0)  -->
<svg version="1.1" id="Layer_1" xmlns="http://www.w3.org/2000/svg" xmlns:xlink="http://www.w3.org/1999/xlink" x="0px" y="0px"
	 viewBox="0 0 419 419" style="enable-background:new 0 0 419 419;" xml:space="preserve">
<style type="text/css">
	.st0{fill:#966C29;stroke:#000000;stroke-width:3;stroke-miterlimit:10;}
	.st1{fill:#4D4D4D;stroke:#000000;stroke-width:3;stroke-miterlimit:10;}
	.st2{fill:#C49270;stroke:#000000;stroke-width:3;stroke-miterlimit:10;}
</style>
<g>
	<path class="st0" d="M265.7,187.2c19.7,32,18.8,70.8-4.8,94.4c-6.8,6.8-14.9,11.7-23.7,14.8c-22.9,8-39.1,28.4-41.8,52.4
		c-2,18-9.3,34.6-22.2,47.5c-34.7,34.7-96.5,29.1-138-12.5c-41.5-41.5-47.1-103.4-12.5-138c12.9-12.9,29.5-20.2,47.5-22.2
		c24.1-2.6,44.4-18.9,52.4-41.8c3.1-8.8,8-16.9,14.8-23.7c23.6-23.6,62.3-24.5,94.3-4.8L265.7,187.2z"/>
	<path class="st1" d="M217.5,237.6c0.3,9.8-3.4,19.7-10.8,27.2c-14.5,14.5-37.9,14.5-52.4,0c-14.5-14.5-14.5-37.9,0-52.4
		c7.5-7.5,17.4-11.1,27.1-10.8c9.2,0.2,18.3,3.9,25.3,10.8S217.3,228.5,217.5,237.6z"/>
	<g>
		<path class="st1" d="M58.3,312.4c-2.9-2.9-7.7-2.9-10.6,0c-2.9,2.9-2.9,7.7,0,10.6L96,371.4c1.5,1.5,3.4,2.2,5.3,2.2
			s3.8-0.7,5.3-2.2c2.9-2.9,2.9-7.7,0-10.6L58.3,312.4z"/>
	</g>
	<path class="st0" d="M418.5,39.1c1.3,3.5,0.4,7.4-2.2,10l-3.4,3.4l-16.4,16.4L380,85.3l-3.9,3.9c-4.8,4.8-12.5,4.8-17.2,0
		l-29.1-29.1c-4.8-4.8-4.8-12.5,0-17.2l3.9-3.9l16.4-16.4l16.4-16.4l3.4-3.4c2.6-2.6,6.5-3.5,10-2.2l24,8.8c2.6,1,4.7,3.1,5.7,5.7
		L418.5,39.1z"/>
	<path class="st2" d="M231.8,153.3l97.8-93.5l0.3,0.3l29.1,29.1l0.3,0.3l-93.5,97.8l-48.2,50.4h0c-0.2-9.2-3.8-18.3-10.8-25.3
		s-16.1-10.6-25.3-10.8v0L231.8,153.3z"/>
</g>
</svg>
