<?xml version="1.0" encoding="utf-8"?>
<!-- Generator: Adobe Illustrator 23.0.5, SVG Export Plug-In . SVG Version: 6.00 Build 0)  -->
<svg version="1.1" id="Layer_1" xmlns="http://www.w3.org/2000/svg" xmlns:xlink="http://www.w3.org/1999/xlink" x="0px" y="0px"
	 viewBox="0 0 446.3 446.3" style="enable-background:new 0 0 446.3 446.3;" xml:space="preserve">
<style type="text/css">
	.st0{fill:#704603;stroke:#000000;stroke-width:3;stroke-miterlimit:10;}
	.st1{fill:#4D4D4D;stroke:#000000;stroke-width:3;stroke-miterlimit:10;}
	.st2{fill:#F95428;stroke:#000000;stroke-width:3;stroke-miterlimit:10;}
	.st3{fill:#F7B239;stroke:#000000;stroke-width:3;stroke-miterlimit:10;}
	.st4{fill:#3A88D6;stroke:#000000;stroke-width:3;stroke-miterlimit:10;}
	.st5{fill:#F2F2F2;stroke:#000000;stroke-width:3;stroke-miterlimit:10;}
</style>
<g>
	<path class="st0" d="M279.9,147.8v16.5L256,214.6c-13.3-5.1-72.4-5.1-85.8,0l-23.8-50.2v-16.5H279.9z"/>
	<g>
		<polygon class="st1" points="146.6,407.2 144.5,413.1 136.9,433.9 126.3,433.9 136.2,406.7 137.2,403.8 		"/>
		<polygon class="st1" points="300,433.9 289.4,433.9 281.8,413.1 279.7,407.2 289.1,403.8 290.1,406.7 		"/>
		<polygon class="st1" points="69.2,390.1 113,433.9 98.8,433.9 69.2,404.3 69.2,433.9 59.2,433.9 59.2,404.3 29.5,433.9 
			15.4,433.9 59.2,390.1 59.2,110.6 40.3,110.6 40.3,100.6 59.2,100.6 59.2,75 2.5,75 2.5,65 125.9,65 125.9,75 69.2,75 		"/>
		<polygon class="st1" points="69.2,48.4 125.9,48.4 125.9,38.4 69.2,38.4 69.2,11.7 59.2,11.7 59.2,38.4 2.5,38.4 2.5,48.4 
			59.2,48.4 		"/>
		<polygon class="st1" points="367.1,100.6 386,100.6 386,110.6 367.1,110.6 367.1,390.1 410.9,433.9 396.8,433.9 367.1,404.3 
			367.1,433.9 357.1,433.9 357.1,404.3 327.5,433.9 313.3,433.9 357.1,390.1 357.1,75 280.4,75 280.4,65 357.1,65 357.1,42.8 
			367.1,42.8 367.1,65 443.8,65 443.8,75 367.1,75 		"/>
	</g>
	<path class="st2" d="M146.5,164.4l-82.3-11.8l-16.7-2.4l-9.8,68.2l26.5,3.8l62.6,9c4-4.1,15.1,5,19.7,1.4
		c9.2-7.1,12.7-25.9,23.8-30.2l4.9-33.9L146.5,164.4z"/>
	<path class="st2" d="M378.8,150.1l-16.7,2.4l-82.3,11.8l-28.7,4.1l4.9,33.9c5.7,2.2,2.6,18.5,7.8,21.5c10,5.7,26.7,13.3,35.7,7.3
		l62.6-9l26.5-3.8L378.8,150.1z"/>
	<path class="st3" d="M120.9,50.8H7.5c-4.1,0-7.5-3.4-7.5-7.5s3.4-7.5,7.5-7.5h113.4c4.1,0,7.5,3.4,7.5,7.5S125,50.8,120.9,50.8z"/>
	<path class="st3" d="M120.9,77.5H7.5C3.4,77.5,0,74.2,0,70s3.4-7.5,7.5-7.5h113.4c4.1,0,7.5,3.4,7.5,7.5S125,77.5,120.9,77.5z"/>
	<path class="st3" d="M438.8,77.5H285.4c-4.1,0-7.5-3.4-7.5-7.5s3.4-7.5,7.5-7.5h153.4c4.1,0,7.5,3.4,7.5,7.5S443,77.5,438.8,77.5z"
		/>
	<path class="st4" d="M299.5,231.2c-12.1-12.5-26.9-22.4-43.5-28.8c-13.3-5.1-27.8-7.9-42.9-7.9s-29.6,2.8-42.9,7.9
		c-16.6,6.3-31.4,16.2-43.5,28.8c-20.9,21.6-33.7,51-33.7,83.4c0,37,16.7,70.1,43.1,92.1c2.7,2.3,5.5,4.4,8.3,6.4
		c16.1,11.2,35,18.6,55.4,20.8c4.4,0.5,8.8,0.7,13.3,0.7s8.9-0.3,13.3-0.7c20.4-2.2,39.4-9.6,55.4-20.8c2.9-2,5.6-4.1,8.3-6.4
		c26.3-22,43.1-55.1,43.1-92.1C333.2,282.2,320.4,252.8,299.5,231.2z M213.2,407.7c-51.4,0-93.1-41.7-93.1-93.1
		c0-51.4,41.7-93.1,93.1-93.1s93.1,41.7,93.1,93.1C306.2,366,264.6,407.7,213.2,407.7z"/>
	<path class="st5" d="M213.2,218.9c52.9,0,95.7,42.9,95.7,95.7c0,52.9-42.9,95.7-95.7,95.7s-95.7-42.9-95.7-95.7
		C117.4,261.7,160.3,218.9,213.2,218.9z"/>
</g>
</svg>
