<?xml version="1.0" encoding="utf-8"?>
<!-- Generator: Adobe Illustrator 23.0.5, SVG Export Plug-In . SVG Version: 6.00 Build 0)  -->
<svg version="1.1" id="Layer_1" xmlns="http://www.w3.org/2000/svg" xmlns:xlink="http://www.w3.org/1999/xlink" x="0px" y="0px"
	 viewBox="0 0 457.7 457.7" style="enable-background:new 0 0 457.7 457.7;" xml:space="preserve">
<style type="text/css">
	.st0{fill:#3A88D6;stroke:#000000;stroke-width:3;stroke-miterlimit:10;}
	.st1{fill:#666666;stroke:#000000;stroke-width:3;stroke-miterlimit:10;}
	.st2{fill:#F7B239;stroke:#000000;stroke-width:3;stroke-miterlimit:10;}
	.st3{fill:#825E25;stroke:#000000;stroke-width:3;stroke-miterlimit:10;}
</style>
<g>
	<polygon class="st0" points="457.7,6.6 383.3,58.2 368.2,58.5 362.9,44.1 360.1,15.1 	"/>
	<polygon class="st0" points="280.5,212.6 223.3,451.2 168.8,359.6 0,372.6 255.6,196.9 255.9,197.1 280.1,212.3 	"/>
	<g>
		<path class="st1" d="M198.4,332.2l-24.6-17c-3.4-2.4-8.1-1.5-10.4,1.9c-2.4,3.4-1.5,8.1,1.9,10.4l24.6,17c1.3,0.9,2.8,1.3,4.3,1.3
			c2.4,0,4.7-1.1,6.2-3.2C202.7,339.2,201.8,334.5,198.4,332.2z"/>
		<path class="st1" d="M187.2,295.9l24.6,17c1.3,0.9,2.8,1.3,4.3,1.3c2.4,0,4.7-1.1,6.2-3.2c2.4-3.4,1.5-8.1-1.9-10.4l-24.6-17
			c-3.4-2.4-8.1-1.5-10.4,1.9C182.9,288.9,183.8,293.5,187.2,295.9z"/>
		<path class="st2" d="M218.6,374.5c-2.5-6-11.2-6.1-13.8-0.1c-1.3,2.9-0.5,6.4,1.8,8.6c2.5,2.3,6.4,2.6,9.2,0.7
			C218.8,381.6,220,377.7,218.6,374.5C218.4,374,218.8,374.9,218.6,374.5z"/>
		<path class="st2" d="M225.6,352c-1.3-3.1-4.7-5.1-8-4.6c-3,0.5-5.5,2.8-6.2,5.7c-1.5,6.2,5.4,11.4,11,8.2
			C225.6,359.5,227.1,355.4,225.6,352C225.4,351.5,225.8,352.4,225.6,352z"/>
	</g>
	<polygon class="st3" points="383.3,58.2 280.1,212.3 245.1,264.6 220.5,247.7 255.9,197.1 362.9,44.1 	"/>
</g>
</svg>
