<?xml version="1.0" encoding="utf-8"?>
<!-- Generator: Adobe Illustrator 23.0.5, SVG Export Plug-In . SVG Version: 6.00 Build 0)  -->
<svg version="1.1" id="Layer_1" xmlns="http://www.w3.org/2000/svg" xmlns:xlink="http://www.w3.org/1999/xlink" x="0px" y="0px"
	 viewBox="0 0 469.5 469.5" style="enable-background:new 0 0 469.5 469.5;" xml:space="preserve">
<style type="text/css">
	.st0{fill:#B3B3B3;stroke:#000000;stroke-width:3;stroke-miterlimit:10;}
	.st1{fill:#895A10;stroke:#000000;stroke-width:3;stroke-miterlimit:10;}
</style>
<g>
	
		<rect x="178.1" y="54.3" transform="matrix(0.9938 -0.1109 0.1109 0.9938 -25.2251 21.8791)" class="st0" width="12" height="366.8"/>
	<rect x="204.8" y="44" transform="matrix(0.9938 -0.1108 0.1108 0.9938 -22.2479 24.661)" class="st0" width="12" height="337"/>
	
		<rect x="233.2" y="101.3" transform="matrix(0.9935 -0.1139 0.1139 0.9935 -23.1588 28.6599)" class="st0" width="12" height="231.4"/>
	
		<rect x="263.4" y="157.7" transform="matrix(0.9942 -0.1077 0.1077 0.9942 -22.3977 30.3093)" class="st0" width="12" height="129.7"/>
	<rect x="288.7" y="144.7" transform="matrix(0.993 -0.1182 0.1182 0.993 -20.7465 36.19)" class="st0" width="12" height="96.6"/>
	<path class="st1" d="M131.1,11.8l7.9-1.6c34.1-3.8,67.3,12.3,85.4,41.3l44.8,71.6c5.6,9,18.5,9.4,24.7,0.9l18.8-25.6
		c8.4-11.5,24-15,36.6-8.3c9.6,5.1,15.2,15,15.2,25.3c0,3.6-0.7,7.2-2.1,10.7L235.9,442.4v1h28l26,26.1H151.1l-2.7-26.1L104.9,14.7
		c-0.8-6.6,3.6-12.8,10-14.3C116,0.1,117,0,118,0C124.6,0,130.4,4.9,131.1,11.8z M140,91L140,91l39.1,350.4l23.2-44.6l23.9-45.9
		L250,305l23.8-45.9v0l23.9-45.9l45.6-87.7c2.2-4.2,0.3-9.4-4-11.3c-1.3-0.6-2.7-0.8-4-0.6c-2.4,0.3-4.7,1.6-6.1,3.8l-17.5,28.1
		c-5,8-11.9,13.6-19.7,16.8c-9.1,3.8-19.4,4.4-28.9,1.6c-9.3-2.7-17.8-8.7-23.7-17.8l-8.9-13.9l-35.2-54.6l-2.2-3.4
		C187.7,66,178.6,61,168.8,61c-1,0-2,0-3,0.2c-0.5,0-0.9,0.1-1.4,0.2C150.5,63.5,140,75.5,140,89.9L140,91z"/>
</g>
</svg>
