<?xml version="1.0" encoding="utf-8"?>
<!-- Generator: Adobe Illustrator 23.0.5, SVG Export Plug-In . SVG Version: 6.00 Build 0)  -->
<svg version="1.1" id="Layer_1" xmlns="http://www.w3.org/2000/svg" xmlns:xlink="http://www.w3.org/1999/xlink" x="0px" y="0px"
	 viewBox="0 0 430.5 430.5" style="enable-background:new 0 0 430.5 430.5;" xml:space="preserve">
<style type="text/css">
	.st0{fill:#CC5C00;stroke:#120E08;stroke-width:5;stroke-miterlimit:10;}
	.st1{opacity:0.25;}
	.st2{fill:#F7BD00;}
	.st3{opacity:0.25;enable-background:new    ;}
</style>
<g>
	<path class="st0" d="M210.7,127.7c-8.3,0-15,6.7-15,15c0,8.3,6.7,15,15,15s15-6.7,15-15C225.7,134.4,219,127.7,210.7,127.7z
		 M104.4,127.7c-8.3,0-15,6.7-15,15c0,8.3,6.7,15,15,15c8.3,0,15-6.7,15-15C119.3,134.4,112.6,127.7,104.4,127.7z M256.5,57.9
		c12.5,38.3,19.7,84.3,19.7,133.6c0,53.6-22.2,163.7-32.8,213.5l-88.2,16l-83.5-15.8c-10.6-49.7-32.9-160-32.9-213.7
		c0-60,10.7-114.8,28.3-157.1l96-21.9l84.6,21.9C251,41.8,253.9,49.7,256.5,57.9L256.5,57.9z"/>
	<g class="st1">
		<path class="st2" d="M71.7,405.2l1.1-0.2h-1.1C71.7,405.1,71.7,405.1,71.7,405.2z"/>
	</g>
	<path d="M72.8,405h170.6c-3.4,15.8-5.6,25.5-5.6,25.5H77.3c0,0-2.2-9.6-5.5-25.3L72.8,405z"/>
	<path class="st3" d="M243.4,405c-3.4,15.8-5.6,25.5-5.6,25.5h-61.5c0,0,2.2-9.7,5.6-25.5H243.4z"/>
	<g>
		<rect x="57.4" y="76.8" transform="matrix(8.890359e-02 -0.996 0.996 8.890359e-02 17.2828 182.5772)" width="102" height="10"/>
		<rect x="201.6" y="30.8" transform="matrix(0.996 -8.890359e-02 8.890359e-02 0.996 -6.4573 18.6959)" width="10" height="102"/>
	</g>
	<path d="M245.9,25.5l2,8.9h-43.6H67.2l5.6-24.8C74.1,4,79.1,0,84.8,0h145.4c5.8,0,10.8,4,12,9.6L245.9,25.5z"/>
	<path d="M104.4,127.7c8.3,0,15,6.7,15,15c0,8.3-6.7,15-15,15c-8.3,0-15-6.7-15-15C89.4,134.4,96.1,127.7,104.4,127.7z"/>
	<path d="M210.7,127.7c8.3,0,15,6.7,15,15c0,8.3-6.7,15-15,15s-15-6.7-15-15C195.8,134.4,202.5,127.7,210.7,127.7z"/>
</g>
</svg>
