<?xml version="1.0" encoding="utf-8"?>
<!-- Generator: Adobe Illustrator 23.0.5, SVG Export Plug-In . SVG Version: 6.00 Build 0)  -->
<svg version="1.1" id="Layer_1" xmlns="http://www.w3.org/2000/svg" xmlns:xlink="http://www.w3.org/1999/xlink" x="0px" y="0px"
	 viewBox="0 0 423.8 423.8" style="enable-background:new 0 0 423.8 423.8;" xml:space="preserve">
<style type="text/css">
	.st0{fill:#FFFFFF;stroke:#000000;stroke-width:3;stroke-miterlimit:10;}
	.st1{fill:#0C0902;}
</style>
<g>
	<polygon class="st0" points="351.1,111.2 303.5,111.2 274.1,111.2 226.6,111.2 173.4,111.2 120.2,111.2 72.7,111.2 19.5,111.2 
		19.5,347.6 96.4,347.6 173.4,347.6 250.4,347.6 327.3,347.6 404.3,347.6 404.3,111.2 	"/>
	<rect x="169.9" y="127.2" class="st1" width="10" height="220.5"/>
	<g>
		<polygon points="345.7,127.2 322.8,127.2 300,127.2 300,257.3 317.8,257.3 317.8,347.6 327.8,347.6 327.8,257.3 345.7,257.3 		"/>
		<polygon points="226,127.2 226,257.3 243.9,257.3 243.9,347.6 253.9,347.6 253.9,257.3 271.7,257.3 271.7,127.2 248.9,127.2 		"/>
		<polygon points="78.1,127.2 78.1,257.3 95.9,257.3 95.9,347.6 105.9,347.6 105.9,257.3 123.8,257.3 123.8,127.2 100.9,127.2 		"/>
	</g>
	<path d="M423.8,92.8v254.8h-26.9l-0.1-0.1V131.2H27v216.5H0V92.8c0-9.2,7.5-16.7,16.7-16.7h390.4C416.3,76.2,423.8,83.6,423.8,92.8
		z"/>
</g>
</svg>
