<?xml version="1.0" encoding="utf-8"?>
<!-- Generator: Adobe Illustrator 23.0.5, SVG Export Plug-In . SVG Version: 6.00 Build 0)  -->
<svg version="1.1" id="Layer_1" xmlns="http://www.w3.org/2000/svg" xmlns:xlink="http://www.w3.org/1999/xlink" x="0px" y="0px"
	 viewBox="0 0 420.4 420.4" style="enable-background:new 0 0 420.4 420.4;" xml:space="preserve">
<style type="text/css">
	.st0{fill:#F7B239;stroke:#000000;stroke-width:3;stroke-miterlimit:10;}
	.st1{opacity:0.25;fill:#4D4D4D;stroke:#000000;stroke-width:3;stroke-miterlimit:10;enable-background:new    ;}
	.st2{fill:#808080;stroke:#000000;stroke-width:3;stroke-miterlimit:10;}
</style>
<g>
	<path class="st0" d="M363.4,13.4c-8.9-8.9-19.2-13-30.7-13.4c-12.5-0.4-25.1,4.4-33.9,13.4c-0.4,0.4-0.8,0.9-1.1,1.3l-9.2-9.2
		l-6.4,6.4l16.6,16.6c0,0,0.1,0.1,0.1,0.1l3.3,3.2c5.4,5.5,14.4,5.9,20.4,1c1.7-1.4,3.1-2.8,5.2-3.7c2-0.8,4.1-1,6.2-0.7
		c4.4,0.7,8.1,3.8,9.4,8c1.5,4.5,0.1,9.7-3.6,12.8l-114.1,97.5l-24.1,20.6L72,278c-12.1,10.4-21.1,24.1-25.4,39.5
		c-4.1,14.5-4,30.1,0.2,44.6c4.3,14.7,12.7,28.2,24.3,38.3c15.2,13.3,35.3,20.5,55.6,20c20.1-0.5,39.7-8.7,54.1-22.7
		c1.9-1.8,3.6-3.7,5.3-5.7l2.5-3c18.5-21.7,48.6-29.8,75.4-20.2v0.9c0,7.5,6,13.5,13.5,13.5h1.7c7.5,0,13.5-6,13.5-13.5v-123
		c0-7.5-6-13.5-13.5-13.5h-1.7c-7.5,0-13.5,6-13.5,13.5v0.9c-5.9,1.7-11.8,3.5-17.5,5.7c-5.8,2.1-11.4,4.5-17,7
		c-11.1,5.1-21.8,11.1-31.9,17.9c-10,6.6-19.4,14.1-28.2,22.2c-9.2,8.4-17.6,17.6-25.3,27.3c-2.4,3-6.1,4.6-9.8,4.2
		c-0.4,0-0.7-0.1-1.1-0.2c-0.1,0-0.2,0-0.4-0.1c-0.5-0.1-1-0.3-1.5-0.5c-0.1,0-0.3-0.1-0.4-0.2c-0.1,0-0.2-0.1-0.4-0.2
		c-0.2-0.1-0.4-0.2-0.7-0.4c0,0,0,0,0,0c-0.2-0.1-0.4-0.3-0.6-0.4c-0.2-0.1-0.4-0.3-0.6-0.5c-0.2-0.2-0.4-0.4-0.7-0.6
		c-2.2-2.1-3.3-5.1-3.3-8.1c0-0.3,0-0.5,0-0.8c0-0.2,0-0.3,0.1-0.5c0.1-0.4,0.1-0.7,0.2-1c0.1-0.3,0.2-0.7,0.3-1
		c0-0.1,0.1-0.2,0.1-0.3c0-0.1,0.1-0.2,0.1-0.2c0,0,0-0.1,0.1-0.1c0.1-0.1,0.1-0.3,0.2-0.5c0.1-0.1,0.1-0.3,0.2-0.4
		c0.1-0.1,0.2-0.3,0.3-0.4c0.2-0.3,0.4-0.6,0.6-0.8c0.2-0.3,0.4-0.5,0.6-0.8c0,0,0,0,0,0c0.1-0.1,0.2-0.2,0.3-0.4L280,161.4l20-19.9
		l64.3-64.3c0.2-0.2,0.3-0.4,0.5-0.6c0.4-0.4,0.7-0.8,1.1-1.2c0-0.1,0.1-0.1,0.1-0.2c1.1-1.3,2.1-2.6,3-4c0.1-0.1,0.2-0.3,0.3-0.4
		c1.3-2,2.4-4,3.4-6.1c0.9-2,1.9-4.2,2.3-6.3c0.1-0.3,0.2-0.7,0.3-1.1c0.1-0.3,0.1-0.5,0.2-0.7c0.2-1,0.4-1.9,0.6-2.9
		c0,0,0-0.1,0-0.1v0C378.6,39.5,374.3,24.3,363.4,13.4z"/>
	<path class="st1" d="M279.3,348.2h-1.7c-7.5,0-13.5-6-13.5-13.5v16.1c-29-9.6-62.2-1.6-82.1,20.2l-2.7,3
		c-17,18.5-41.5,28.4-66.4,28.4c-12.6,0-25.3-2.5-37.2-7.7c-7.2-3.1-13.6-7-19.3-11.4c7.8,12.2,19.1,22.6,33.6,29.4
		c11.1,5.2,22.8,7.7,34.5,7.7c23.1,0,45.9-10,61.6-28.4l2.5-3c18.5-21.7,48.6-29.8,75.4-20.2v0.9c0,7.5,6,13.5,13.5,13.5h1.7
		c7.5,0,13.5-6,13.5-13.5v-35C292.8,342.1,286.7,348.2,279.3,348.2z"/>
	<path class="st1" d="M376.1,53.7c-0.2,1-0.4,1.9-0.6,2.9c0,0.3-0.1,0.5-0.2,0.7c-0.1,0.4-0.2,0.7-0.3,1.1c-0.4,2.1-1.4,4.3-2.3,6.3
		c-1,2.1-2.1,4.2-3.4,6.1c-0.1,0.2-0.2,0.3-0.3,0.4c-0.9,1.4-2,2.7-3,4c0,0.1-0.1,0.1-0.1,0.2c-0.4,0.4-0.7,0.8-1.1,1.2
		c-0.2,0.2-0.3,0.4-0.5,0.6L300,141.4l-20,19.9l-152,152c-0.3,0.1-0.5,0.3-0.5,0.5c0,0,0,0,0,0c-0.2,0.3-0.4,0.5-0.6,0.8
		c-0.2,0.3-0.4,0.5-0.6,0.8c-0.1,0.1-0.2,0.3-0.3,0.4s-0.2,0.3-0.2,0.4c-0.1,0.1-0.2,0.3-0.2,0.5c-0.1,0.1-0.1,0.3-0.2,0.4
		c0,0.1-0.1,0.2-0.1,0.3c-0.1,0.3-0.2,0.7-0.3,1c-0.2,0.9-0.3,1.8-0.3,2.6c0,2.7,1,5.4,3,7.5c0.3,0.3,0.6,0.6,1,0.9
		c0.2,0.2,0.4,0.3,0.6,0.5c0.2,0.1,0.4,0.3,0.6,0.4c0,0,0,0,0,0c0.2,0.1,0.4,0.3,0.7,0.4c0.1,0.1,0.2,0.1,0.4,0.2
		c0.1,0.1,0.3,0.1,0.4,0.2c0.5,0.2,1,0.4,1.5,0.5c0.1,0,0.2,0.1,0.4,0.1c0.4,0.1,0.7,0.1,1.1,0.2c2,0.2,4.1-0.1,5.9-1
		c-13.1,9.2-23.3,1.7-26.7-10.1c-3.2-11,0.4-22.8,8.8-30.5l158.2-146.7l21.5-19.9L376.1,53.7z"/>
	
		<rect x="297.6" y="125.4" transform="matrix(0.7071 -0.7071 0.7071 0.7071 -13.4776 256.7166)" class="st0" width="11" height="38.4"/>
	
		<rect x="277.7" y="145.4" transform="matrix(0.7071 -0.7071 0.7071 0.7071 -33.425 248.4527)" class="st0" width="11" height="38.4"/>
	
		<rect x="217.9" y="125.4" transform="matrix(0.7071 -0.7071 0.7071 0.7071 -36.848 200.2982)" class="st0" width="11" height="38.4"/>
	
		<rect x="195.5" y="147.8" transform="matrix(0.7071 -0.7071 0.7071 0.7071 -59.1878 191.0447)" class="st0" width="11" height="38.4"/>
	<path class="st2" d="M192.2,216.8c-0.5,0-1-0.1-1.5-0.1c-0.5-0.1-0.9-0.2-1.4-0.4c-0.5-0.2-0.9-0.4-1.3-0.7
		c-0.4-0.3-0.8-0.6-1.1-0.9c-1.4-1.4-2.2-3.3-2.2-5.3c0-0.5,0-1,0.1-1.5s0.2-1,0.4-1.4c0.2-0.4,0.4-0.9,0.7-1.3
		c0.3-0.4,0.6-0.8,0.9-1.1c0.4-0.4,0.7-0.7,1.1-0.9c0.4-0.3,0.8-0.5,1.3-0.7c0.4-0.2,0.9-0.3,1.4-0.4c2.4-0.5,5,0.3,6.8,2.1
		c0.3,0.3,0.7,0.7,0.9,1.1c0.3,0.4,0.5,0.8,0.7,1.3c0.2,0.5,0.3,0.9,0.4,1.4c0.1,0.5,0.1,1,0.1,1.5c0,2-0.8,3.9-2.2,5.3
		C196.1,216,194.2,216.8,192.2,216.8z"/>
	<path class="st2" d="M173.1,235.9c-0.5,0-1-0.1-1.5-0.1c-0.5-0.1-0.9-0.2-1.4-0.4c-0.5-0.2-0.9-0.4-1.3-0.7
		c-0.4-0.3-0.8-0.6-1.1-0.9c-1.4-1.4-2.2-3.3-2.2-5.3c0-0.5,0.1-1,0.1-1.5c0.1-0.5,0.2-0.9,0.4-1.4c0.2-0.4,0.4-0.9,0.7-1.3
		c0.3-0.4,0.6-0.8,0.9-1.1c0.4-0.4,0.7-0.7,1.1-0.9c0.4-0.3,0.8-0.5,1.3-0.7c0.4-0.2,0.9-0.3,1.4-0.4c2.4-0.5,5,0.3,6.8,2.1
		c0.4,0.3,0.7,0.7,0.9,1.1c0.3,0.4,0.5,0.8,0.7,1.3s0.3,0.9,0.4,1.4c0.1,0.5,0.1,1,0.1,1.5c0,2-0.8,3.9-2.2,5.3
		C177,235.1,175.1,235.9,173.1,235.9z"/>
	<path class="st2" d="M155.1,253.9c-0.5,0-1,0-1.5-0.1c-0.5-0.1-0.9-0.2-1.4-0.4c-0.4-0.2-0.9-0.4-1.3-0.7c-0.4-0.3-0.8-0.6-1.1-0.9
		c-1.4-1.4-2.2-3.3-2.2-5.3c0-2,0.8-3.9,2.2-5.3c0.3-0.3,0.7-0.7,1.1-0.9c0.4-0.3,0.8-0.5,1.3-0.7s0.9-0.3,1.4-0.4
		c1-0.2,2-0.2,2.9,0c0.5,0.1,0.9,0.2,1.4,0.4s0.9,0.4,1.3,0.7c0.4,0.3,0.8,0.6,1.1,0.9c0.4,0.4,0.7,0.7,0.9,1.1
		c0.3,0.4,0.5,0.8,0.7,1.3c0.2,0.4,0.3,0.9,0.4,1.4c0.1,0.5,0.1,1,0.1,1.5c0,0.5-0.1,1-0.1,1.5c-0.1,0.5-0.2,0.9-0.4,1.4
		c-0.2,0.5-0.4,0.9-0.7,1.3c-0.3,0.4-0.6,0.8-0.9,1.1c-0.3,0.3-0.7,0.7-1.1,0.9c-0.4,0.3-0.8,0.5-1.3,0.7s-0.9,0.3-1.4,0.4
		C156.1,253.8,155.6,253.9,155.1,253.9z"/>
	<path class="st0" d="M311.7,172.7c-1.9,0-3.8-0.7-5.3-2.2c-2.9-2.9-2.9-7.7,0-10.6l13-13c2.9-2.9,7.7-2.9,10.6,0
		c2.9,2.9,2.9,7.7,0,10.6l-13,13C315.5,172,313.6,172.7,311.7,172.7z"/>
	<path class="st0" d="M179.2,166.6c-1.9,0-3.8-0.7-5.3-2.2c-2.9-2.9-2.9-7.7,0-10.6l13-13c2.9-2.9,7.7-2.9,10.6,0
		c2.9,2.9,2.9,7.7,0,10.6l-13,13C183,165.9,181.1,166.6,179.2,166.6z"/>
</g>
</svg>
