<?xml version="1.0" encoding="utf-8"?>
<!-- Generator: Adobe Illustrator 23.0.5, SVG Export Plug-In . SVG Version: 6.00 Build 0)  -->
<svg version="1.1" id="Layer_1" xmlns="http://www.w3.org/2000/svg" xmlns:xlink="http://www.w3.org/1999/xlink" x="0px" y="0px"
	 viewBox="0 0 430.1 430.1" style="enable-background:new 0 0 430.1 430.1;" xml:space="preserve">
<style type="text/css">
	.st0{fill:#A5A4A4;stroke:#000000;stroke-width:3;stroke-miterlimit:10;}
	.st1{fill:#CCCCCC;stroke:#000000;stroke-width:3;stroke-miterlimit:10;}
	.st2{opacity:0.25;fill:#4D4D4D;stroke:#000000;stroke-width:3;stroke-miterlimit:10;enable-background:new    ;}
</style>
<g>
	<path class="st0" d="M392.6,352.9c9.5,16.4-2.4,36.8-21.3,36.8H24.6c-18.9,0-30.7-20.5-21.3-36.8L176.7,52.6
		c9.4-16.4,33.1-16.4,42.5,0l70.1,121.5l-9.6,22.5l-17.9,5L197.9,91L47.2,352.1h301.5l-73-126.3l7.9-27.8l19.6,0.3L392.6,352.9z"/>
	<path class="st1" d="M426.1,56.4c-2.6-2.6-6.1-4-9.5-4c-3.5,0-6.9,1.3-9.5,4L289.3,174.1l-27.5,27.5L215.4,248
		c-7.9-1.7-16.5,0.6-22.6,6.7c-9.7,9.7-9.7,25.3,0,35c9.7,9.7,25.3,9.7,35,0c6.1-6.1,8.4-14.7,6.7-22.7l41.3-41.3l27.5-27.5
		L426.1,75.4C431.4,70.2,431.4,61.6,426.1,56.4z"/>
	<path class="st2" d="M234.5,267.1c-1-4.5-3.2-8.8-6.7-12.3c-2-2-4.4-3.6-6.8-4.8c0.8,1.8,1.5,3.6,1.9,5.5
		c1.7,7.9-0.6,16.5-6.7,22.7c-7.6,7.6-18.9,9.2-28.1,4.8c1.2,2.5,2.8,4.8,4.8,6.9c9.7,9.7,25.3,9.7,35,0
		C233.9,283.6,236.1,275,234.5,267.1z"/>
</g>
</svg>
