<?xml version="1.0" encoding="utf-8"?>
<!-- Generator: Adobe Illustrator 23.0.5, SVG Export Plug-In . SVG Version: 6.00 Build 0)  -->
<svg version="1.1" id="Layer_1" xmlns="http://www.w3.org/2000/svg" xmlns:xlink="http://www.w3.org/1999/xlink" x="0px" y="0px"
	 viewBox="0 0 434.3 434.3" style="enable-background:new 0 0 434.3 434.3;" xml:space="preserve">
<style type="text/css">
	.st0{fill:#CC582F;stroke:#000000;stroke-width:3;stroke-miterlimit:10;}
	.st1{fill:#808080;stroke:#000000;stroke-width:3;stroke-miterlimit:10;}
	.st2{fill:#4D4D4D;stroke:#000000;stroke-width:3;stroke-miterlimit:10;}
	.st3{fill:#333333;stroke:#000000;stroke-width:3;stroke-miterlimit:10;}
	.st4{fill:#11100D;stroke:#000000;stroke-width:3;stroke-miterlimit:10;}
</style>
<g>
	
		<rect x="399.6" y="41.3" transform="matrix(0.7071 -0.7071 0.7071 0.7071 80.3612 301.9129)" class="st0" width="10" height="25.3"/>
	<rect x="375.3" y="17" transform="matrix(0.7071 -0.7071 0.7071 0.7071 90.4247 277.6169)" class="st0" width="10" height="25.3"/>
	
		<rect x="384.7" y="57.1" transform="matrix(0.7071 -0.7071 0.7071 0.7071 65.0652 295.8909)" class="st0" width="10" height="24.5"/>
	<rect x="359.9" y="32.3" transform="matrix(0.7071 -0.7071 0.7071 0.7071 75.3542 271.06)" class="st0" width="10" height="24.5"/>
	<g>
		<path class="st0" d="M294.1,161.4c21.8,29.4,25.5,67.7,3.7,89.4c-9.3,9.3-17.5,15.2-25.9,19.2c-3.9,2.3-10.9,7.6-15,17.5
			c-1.4,3.4-6.2,3.6-7.6,0.3c-0.3-0.6-0.4-1-0.5-1.1c-0.8-2-1.9-3.5-3.6-4.6c-8.4-5.6-25.4,4.4-37.9,22.4
			c-12.5,18-15.8,37.2-7.4,42.9c1,0.7,4.3,2.1,7.5,3.4c2.3,0.9,2.6,3.8,0.9,5.4c-0.3,0.3-0.7,0.6-1.2,0.8
			c-9.3,3.9-16.7,11.6-20,21.1c-5.5,15.8-13.3,29.6-22.6,38.9c-29.4,29.4-78.3,18.8-116.2-13.5l0.7-13.6l-18.4-4.1
			C-1.6,348-12.1,299.1,17.3,269.7c9.3-9.3,23.1-17.1,38.9-22.6c5-1.8,9.6-4.6,13.3-8.4c3.3-3.3,6-7.3,7.8-11.7
			c1.2-2.8,5.1-2.9,6.2-0.2c1.3,3.2,2.7,6.5,3.4,7.5c5.7,8.4,24.8,5.1,42.8-7.4c18-12.5,28.1-29.5,22.4-37.9
			c-1.1-1.6-2.6-2.8-4.6-3.6c-0.1-0.1-0.5-0.3-1.1-0.5c-3.3-1.4-3.2-6.2,0.3-7.6c10-4.1,15.3-11.1,17.6-15c4-8.3,9.9-16.6,19.2-25.9
			c21.8-21.8,60.1-18.1,89.4,3.7L294.1,161.4z"/>
		<polygon class="st1" points="135.3,339.9 86.2,365.8 68.5,348.1 94.3,299 		"/>
		<path class="st2" d="M86.2,365.8l-37.8,37.8c-3.2-2.7-6.2-5.5-9.2-8.5s-5.8-6-8.5-9.2l37.8-37.8L86.2,365.8z"/>
		<polygon class="st2" points="272.9,140.2 402.5,19.3 415,31.8 294.1,161.4 216.7,244.4 189.9,217.6 		"/>
		<g>
			<path class="st3" d="M199.4,259.6c-3.5-2.2-8.1-1.2-10.3,2.3c-2.2,3.5-1.1,8.1,2.4,10.3l-21.5,34.3c-4.4,7-2.3,16.2,4.7,20.6
				c1.2,0.8,2.6,1.2,4,1.2c2.5,0,4.9-1.2,6.3-3.5c2.2-3.5,1.1-8.1-2.4-10.3l21.5-34.3C208.5,273.3,206.4,264,199.4,259.6z"/>
			<path class="st3" d="M172.3,245.2c3.5-2.2,4.6-6.8,2.4-10.3c-2.1-3.4-5.4-5.7-9.3-6.6c-3.9-0.9-7.9-0.2-11.3,1.9l-34.3,21.6l0,0
				c-2.2-3.5-6.8-4.6-10.3-2.4c-3.5,2.2-4.6,6.8-2.4,10.3c2.1,3.4,5.4,5.7,9.3,6.6c1.1,0.3,2.2,0.4,3.4,0.4c2.8,0,5.5-0.8,7.9-2.3
				l34.3-21.6C164.1,246.3,168.8,247.4,172.3,245.2z"/>
		</g>
		<path class="st0" d="M433,7.7c1.5,1.5,1.7,3.7,0.5,5.4l-13.8,20.7c-1.5,2.3-4.7,2.6-6.6,0.7l-0.4-0.4l-12.5-12.5l-0.4-0.4
			c-1.9-1.9-1.6-5.1,0.6-6.6l20.7-13.8c1.7-1.1,4-0.9,5.4,0.5L433,7.7z"/>
	</g>
	<g>
		<path class="st4" d="M158.8,83.8c-4.8-4.8-11.1-7.4-17.9-7.4S127.8,79,123,83.8l10.6,10.6c1.9-1.9,4.5-3,7.3-3s5.4,1.1,7.3,3
			l202.4,202.4l-9.6,9.6l10.6,10.6l9.6-9.6l10,10l-7.3,7.3l10.6,10.6l17.9-17.9L158.8,83.8z"/>
		
			<rect x="247.5" y="23.9" transform="matrix(0.7071 -0.7071 0.7071 0.7071 -81.2117 244.9201)" class="st1" width="15" height="393.2"/>
	</g>
</g>
</svg>
