<?xml version="1.0" encoding="iso-8859-1"?>
<!-- Generator: Adobe Illustrator 19.0.0, SVG Export Plug-In . SVG Version: 6.00 Build 0)  -->
<svg version="1.1" id="Layer_1" xmlns="http://www.w3.org/2000/svg" xmlns:xlink="http://www.w3.org/1999/xlink" x="0px" y="0px"
	 viewBox="0 0 441.073 441.073" style="enable-background:new 0 0 441.073 441.073;" xml:space="preserve">
<g>
	<path style="fill:#F2F2F2;" d="M207.539,310.187v86.39h-45.42l8.06-58.1l4.23-30.52v-0.01
		C185.448,309.117,196.499,309.867,207.539,310.187z"/>
	<path style="fill:#F2F2F2;" d="M278.948,396.577h-45.41v-86.39c11.04-0.32,22.09-1.07,33.13-2.24v0.01l4.23,30.52L278.948,396.577z
		"/>
	<path style="fill:#F95428;" d="M233.539,310.197v86.38h-26v-86.38v-0.01c8.66,0.26,17.33,0.26,26,0V310.197z"/>
	<polygon style="fill:#F95428;" points="304.229,396.577 310.539,433.577 130.539,433.577 136.849,396.577 162.119,396.577 
		207.539,396.577 233.539,396.577 278.949,396.577 	"/>
	<polygon style="opacity:0.25;fill:#4D4D4D;" points="304.228,396.577 278.948,396.577 260.228,396.577 266.539,433.577 
		310.539,433.577 	"/>
	<path style="fill:#CCCCCC;" d="M189.039,8.607c10.5-0.76,21-1.14,31.5-1.14s21,0.38,31.5,1.14c10.5,0.75,21,1.89,31.5,3.4
		c5.04,0.73,10.09,1.55,15.14,2.45c12.43,2.22,21.83,12.52,23.03,25.1c7.66,79.58,7.66,159.16,0,238.75
		c-1.2,12.57-10.6,22.87-23.03,25.09c-10.67,1.91-21.34,3.43-32.01,4.55c-11.04,1.17-22.09,1.92-33.13,2.24
		c-8.67,0.26-17.34,0.26-26,0c-11.04-0.32-22.09-1.07-33.13-2.24c-10.67-1.12-21.34-2.64-32.01-4.55
		c-12.43-2.22-21.83-12.52-23.04-25.09c-3.82-39.79-5.74-79.58-5.74-119.37s1.91-79.59,5.74-119.38
		c1.21-12.58,10.61-22.88,23.04-25.1c5.05-0.9,10.09-1.72,15.14-2.45C168.039,10.497,178.539,9.357,189.039,8.607z"/>
	<path style="opacity:0.25;fill:#4D4D4D;" d="M174.409,307.948c11.04,1.17,22.09,1.92,33.13,2.24v31
		c-11.04-0.32-22.09-1.07-33.13-2.24c-1.41-0.15-2.82-0.3-4.23-0.47l4.23-30.52V307.948z"/>
	<path style="opacity:0.25;fill:#4D4D4D;" d="M270.898,338.477c-1.41,0.17-2.82,0.32-4.23,0.47c-11.04,1.17-22.09,1.92-33.13,2.24
		v-31c11.04-0.32,22.09-1.07,33.13-2.24v0.01L270.898,338.477z"/>
	<path style="opacity:0.25;fill:#4D4D4D;" d="M321.708,39.557c-1.2-12.58-10.6-22.88-23.03-25.1c-5.05-0.9-10.1-1.72-15.14-2.45
		c-10.5-1.51-21-2.65-31.5-3.4c-10.5-0.76-21-1.14-31.5-1.14c-8.667,0-17.333,0.274-26,0.792c1.833,0.109,3.667,0.216,5.5,0.348
		c10.5,0.75,21,1.89,31.5,3.4c5.04,0.73,10.09,1.55,15.14,2.45c12.43,2.22,21.83,12.52,23.03,25.1c7.66,79.58,7.66,159.16,0,238.75
		c-1.2,12.57-10.6,22.87-23.03,25.09c-10.67,1.91-21.34,3.43-32.01,4.55c-6.708,0.711-13.419,1.247-20.13,1.646
		c4.334,0.257,8.668,0.469,13,0.594c8.66,0.26,17.33,0.26,26,0c11.04-0.32,22.09-1.07,33.13-2.24c10.67-1.12,21.34-2.64,32.01-4.55
		c12.43-2.22,21.83-12.52,23.03-25.09C329.369,198.718,329.369,119.137,321.708,39.557z"/>
	<g>
		<path style="fill:#333333;" d="M329.179,38.837c-1.529-15.901-13.529-28.962-29.184-31.763c-52.725-9.433-106.192-9.433-158.917,0
			c-15.654,2.801-27.655,15.862-29.184,31.763c-7.661,79.688-7.661,160.497,0,240.185c1.529,15.901,13.529,28.962,29.184,31.763
			c8.267,1.479,16.554,2.699,24.852,3.714l-10.342,74.575h-18.744c-3.656,0-6.779,2.636-7.393,6.239l-6.31,37
			c-0.372,2.178,0.236,4.409,1.661,6.098c1.425,1.689,3.522,2.663,5.732,2.663h180c2.209,0,4.307-0.974,5.732-2.663
			c1.425-1.688,2.033-3.919,1.661-6.098l-6.309-37c-0.614-3.604-3.737-6.239-7.393-6.239h-18.743l-10.334-74.575
			c8.296-1.015,16.582-2.234,24.847-3.713c15.654-2.801,27.654-15.862,29.183-31.763C336.84,199.335,336.84,118.525,329.179,38.837z
			 M180.851,316.1c6.392,0.567,12.789,0.992,19.189,1.285v71.689h-29.309L180.851,316.1z M215.039,389.073v-71.275
			c1.832,0.022,3.665,0.061,5.497,0.061c1.834,0,3.669-0.039,5.503-0.061v71.275H215.039z M301.647,426.073H139.421l3.751-22
			h154.723L301.647,426.073z M270.338,389.073h-29.299v-71.689c6.399-0.293,12.796-0.718,19.187-1.285L270.338,389.073z
			 M297.354,296.019c-50.973,9.119-102.663,9.119-153.634,0c-9.06-1.621-16.007-9.201-16.894-18.433
			c-0.757-7.873-1.417-15.76-2.022-23.653H151.1c4.142,0,7.5-3.358,7.5-7.5s-3.358-7.5-7.5-7.5h-27.356
			c-0.304-4.72-0.581-9.442-0.831-14.167H151.1c4.142,0,7.5-3.358,7.5-7.5s-3.358-7.5-7.5-7.5h-28.891
			c-0.193-4.721-0.359-9.443-0.498-14.167H151.1c4.142,0,7.5-3.358,7.5-7.5s-3.358-7.5-7.5-7.5h-29.74
			c-0.082-4.722-0.137-9.444-0.166-14.167H151.1c4.142,0,7.5-3.358,7.5-7.5s-3.358-7.5-7.5-7.5h-29.906
			c0.028-4.723,0.084-9.445,0.166-14.167H151.1c4.142,0,7.5-3.358,7.5-7.5s-3.358-7.5-7.5-7.5H121.71
			c0.139-4.724,0.305-9.446,0.498-14.167H151.1c4.142,0,7.5-3.358,7.5-7.5s-3.358-7.5-7.5-7.5h-28.187
			c0.25-4.725,0.527-9.447,0.831-14.167H151.1c4.142,0,7.5-3.358,7.5-7.5s-3.358-7.5-7.5-7.5h-26.297
			c0.606-7.896,1.266-15.785,2.023-23.661c0.887-9.232,7.834-16.812,16.894-18.433c2.105-0.376,4.213-0.714,6.32-1.059v6.792
			c0,4.142,3.358,7.5,7.5,7.5s7.5-3.358,7.5-7.5v-8.992c5.495-0.707,10.995-1.322,16.5-1.819v10.811c0,4.142,3.358,7.5,7.5,7.5
			s7.5-3.358,7.5-7.5V15.692c5.498-0.305,10.998-0.513,16.5-0.608v12.49c0,4.142,3.358,7.5,7.5,7.5s7.5-3.358,7.5-7.5v-12.49
			c5.502,0.095,11.002,0.304,16.5,0.608v11.881c0,4.142,3.358,7.5,7.5,7.5s7.5-3.358,7.5-7.5V16.763
			c5.505,0.497,11.005,1.112,16.5,1.819v8.992c0,4.142,3.358,7.5,7.5,7.5s7.5-3.358,7.5-7.5v-6.792
			c2.105,0.345,4.211,0.682,6.314,1.058c9.06,1.621,16.007,9.201,16.894,18.433c0.757,7.875,1.417,15.765,2.023,23.661h-26.291
			c-4.142,0-7.5,3.358-7.5,7.5s3.358,7.5,7.5,7.5h27.35c0.304,4.72,0.581,9.442,0.831,14.167h-28.182c-4.142,0-7.5,3.358-7.5,7.5
			s3.358,7.5,7.5,7.5h28.886c0.193,4.721,0.359,9.443,0.498,14.167h-29.383c-4.142,0-7.5,3.358-7.5,7.5s3.358,7.5,7.5,7.5h29.735
			c0.082,4.722,0.137,9.444,0.166,14.167h-29.9c-4.142,0-7.5,3.358-7.5,7.5s3.358,7.5,7.5,7.5h29.9
			c-0.028,4.723-0.084,9.445-0.166,14.167h-29.735c-4.142,0-7.5,3.358-7.5,7.5s3.358,7.5,7.5,7.5h29.383
			c-0.139,4.724-0.305,9.446-0.498,14.167h-28.885c-4.142,0-7.5,3.358-7.5,7.5s3.358,7.5,7.5,7.5h28.181
			c-0.25,4.725-0.527,9.447-0.831,14.167h-27.35c-4.142,0-7.5,3.358-7.5,7.5s3.358,7.5,7.5,7.5h26.29
			c-0.606,7.893-1.265,15.78-2.022,23.653C313.36,286.819,306.413,294.399,297.354,296.019z"/>
		<path style="fill:#333333;" d="M263.1,63.933h-85.12c-4.142,0-7.5,3.358-7.5,7.5s3.358,7.5,7.5,7.5h85.12
			c4.142,0,7.5-3.358,7.5-7.5S267.242,63.933,263.1,63.933z"/>
		<path style="fill:#333333;" d="M263.1,93.1h-85.12c-4.142,0-7.5,3.358-7.5,7.5s3.358,7.5,7.5,7.5h85.12c4.142,0,7.5-3.358,7.5-7.5
			S267.242,93.1,263.1,93.1z"/>
		<path style="fill:#333333;" d="M263.1,122.267h-85.12c-4.142,0-7.5,3.358-7.5,7.5s3.358,7.5,7.5,7.5h85.12
			c4.142,0,7.5-3.358,7.5-7.5S267.242,122.267,263.1,122.267z"/>
		<path style="fill:#333333;" d="M263.1,151.433h-85.12c-4.142,0-7.5,3.358-7.5,7.5s3.358,7.5,7.5,7.5h85.12
			c4.142,0,7.5-3.358,7.5-7.5S267.242,151.433,263.1,151.433z"/>
		<path style="fill:#333333;" d="M263.1,180.6h-85.12c-4.142,0-7.5,3.358-7.5,7.5s3.358,7.5,7.5,7.5h85.12
			c4.142,0,7.5-3.358,7.5-7.5S267.242,180.6,263.1,180.6z"/>
		<path style="fill:#333333;" d="M263.1,209.767h-85.12c-4.142,0-7.5,3.358-7.5,7.5s3.358,7.5,7.5,7.5h85.12
			c4.142,0,7.5-3.358,7.5-7.5S267.242,209.767,263.1,209.767z"/>
		<path style="fill:#333333;" d="M263.1,238.933h-85.12c-4.142,0-7.5,3.358-7.5,7.5s3.358,7.5,7.5,7.5h85.12
			c4.142,0,7.5-3.358,7.5-7.5S267.242,238.933,263.1,238.933z"/>
	</g>
	<path style="fill:#FFFFFF;" d="M143.248,49.357c-1.97,0-3.91-0.8-5.3-2.2c-0.35-0.34-0.66-0.73-0.94-1.14
		c-0.27-0.4-0.5-0.84-0.69-1.29c-0.18-0.45-0.33-0.93-0.42-1.4c-0.1-0.49-0.15-0.98-0.15-1.47c0-1.97,0.8-3.91,2.2-5.3
		c0.34-0.35,0.72-0.66,1.14-0.94c0.4-0.27,0.84-0.5,1.29-0.69c0.45-0.18,0.93-0.33,1.4-0.42c2.44-0.49,5.03,0.3,6.77,2.05
		c0.35,0.34,0.66,0.72,0.93,1.14c0.27,0.4,0.51,0.84,0.69,1.29c0.19,0.45,0.34,0.93,0.43,1.4c0.1,0.49,0.15,0.98,0.15,1.47
		s-0.05,0.98-0.15,1.47c-0.09,0.47-0.24,0.95-0.43,1.4c-0.18,0.45-0.42,0.89-0.69,1.29c-0.27,0.41-0.58,0.8-0.93,1.14
		C147.158,48.557,145.218,49.357,143.248,49.357z"/>
	<path style="fill:#FFFFFF;" d="M142.359,273.951c-3.845,0-7.119-2.94-7.462-6.842c-3.17-35.995-4.778-72.389-4.778-108.171
		c0-32.033,1.286-64.584,3.822-96.75c0.326-4.129,3.938-7.221,8.066-6.887c4.129,0.325,7.213,3.937,6.887,8.066
		c-2.505,31.775-3.775,63.929-3.775,95.571c0,35.345,1.588,71.296,4.721,106.855c0.363,4.126-2.687,7.766-6.813,8.129
		C142.803,273.941,142.58,273.951,142.359,273.951z"/>
</g>
<g>
</g>
<g>
</g>
<g>
</g>
<g>
</g>
<g>
</g>
<g>
</g>
<g>
</g>
<g>
</g>
<g>
</g>
<g>
</g>
<g>
</g>
<g>
</g>
<g>
</g>
<g>
</g>
<g>
</g>
</svg>
